<svg width="161" height="44" viewBox="0 0 161 44" fill="none" xmlns="http://www.w3.org/2000/svg">
<path d="M50.95 13.144C50.338 13.144 49.726 13.45 49.114 14.062V29.804L49.25 33C48.4793 33.1133 47.72 33.17 46.972 33.17C46.6093 33.17 46.428 32.9773 46.428 32.592V14.198C46.428 13.6993 46.3373 13.348 46.156 13.144C45.9747 12.9173 45.646 12.804 45.17 12.804C45.1473 12.2147 45.306 11.75 45.646 11.41C45.986 11.07 46.53 10.9 47.278 10.9C48.026 10.9 48.5587 11.274 48.876 12.022C49.76 11.274 50.6667 10.9 51.596 10.9C53.84 10.9 54.962 12.0107 54.962 14.232V30.11C54.962 30.586 55.0527 30.926 55.234 31.13C55.438 31.3113 55.778 31.402 56.254 31.402C56.254 32.694 55.5287 33.34 54.078 33.34C52.8767 33.34 52.276 32.558 52.276 30.994V14.436C52.276 13.5747 51.834 13.144 50.95 13.144ZM60.8775 26.778C60.1295 27.2767 59.7555 28.1153 59.7555 29.294C59.7555 30.45 60.1068 31.028 60.8095 31.028C61.5348 31.028 62.1015 30.62 62.5095 29.804V25.69L60.8775 26.778ZM61.2515 16C63.7901 16 65.0595 17.122 65.0595 19.366V30.178C65.0595 30.654 65.1388 30.994 65.2975 31.198C65.4788 31.402 65.8075 31.504 66.2835 31.504C66.3061 32.0933 66.1475 32.5467 65.8075 32.864C65.4901 33.1813 65.0255 33.34 64.4135 33.34C63.4615 33.34 62.8835 32.9887 62.6795 32.286C61.9768 32.9887 61.1495 33.34 60.1975 33.34C59.2455 33.34 58.4861 32.9773 57.9195 32.252C57.3528 31.5267 57.0695 30.552 57.0695 29.328C57.0695 27.4693 57.8515 26.064 59.4155 25.112L62.5095 23.276V19.604C62.5095 18.652 62.0561 18.176 61.1495 18.176C60.2655 18.176 59.8235 18.7087 59.8235 19.774V20.896L59.9255 22.494C59.6308 22.562 59.3248 22.596 59.0075 22.596C58.7128 22.596 58.4295 22.5507 58.1575 22.46C57.6135 22.324 57.3415 22.0633 57.3415 21.678V18.89C57.3415 17.9833 57.6928 17.2807 58.3955 16.782C59.1208 16.2607 60.0728 16 61.2515 16ZM71.516 30.722H72.196C73.3293 30.722 74.1907 31.0507 74.78 31.708C75.3693 32.3653 75.664 33.2947 75.664 34.496C75.664 36.944 74.5533 38.168 72.332 38.168H70.632C69.4987 38.168 68.6373 37.828 68.048 37.148C67.4587 36.4907 67.164 35.5613 67.164 34.36C67.164 32.7053 67.7647 31.606 68.966 31.062V28.682C67.9007 28.1153 67.368 27.1067 67.368 25.656V19.944C67.368 18.8107 67.7193 17.9267 68.422 17.292C69.1247 16.6573 70.0767 16.34 71.278 16.34H73.012L75.086 16.204V25.52C75.086 26.608 74.7573 27.4693 74.1 28.104C73.4653 28.716 72.604 29.056 71.516 29.124V30.722ZM69.918 19.808V25.656C69.918 26.0413 70.0427 26.37 70.292 26.642C70.5413 26.8913 70.8473 27.016 71.21 27.016C71.5953 27.016 71.9127 26.8913 72.162 26.642C72.4113 26.37 72.536 26.0413 72.536 25.656V18.516H71.21C70.8247 18.516 70.5073 18.6407 70.258 18.89C70.0313 19.1167 69.918 19.4227 69.918 19.808ZM72.298 32.864H70.53C69.918 32.864 69.612 33.3853 69.612 34.428C69.612 35.4933 69.918 36.026 70.53 36.026H72.298C72.91 36.026 73.216 35.4933 73.216 34.428C73.216 33.3853 72.91 32.864 72.298 32.864ZM80.2237 30.212C80.2237 31.3 80.3031 32.2067 80.4617 32.932C79.7817 33.068 79.0451 33.136 78.2517 33.136C77.8664 33.136 77.6737 32.966 77.6737 32.626V19.162C77.6737 18.686 77.5831 18.346 77.4017 18.142C77.2431 17.938 76.9257 17.836 76.4497 17.836C76.4271 17.2467 76.5744 16.7933 76.8917 16.476C77.2317 16.1587 77.7077 16 78.3197 16C79.2264 16 79.7931 16.4533 80.0197 17.36C80.5864 16.4533 81.3911 16 82.4337 16C84.2924 16 85.2217 16.8953 85.2217 18.686V22.086C85.2217 22.4713 84.9497 22.732 84.4057 22.868C84.1337 22.9587 83.8391 23.004 83.5217 23.004C83.2271 23.004 82.9324 22.97 82.6377 22.902C82.7057 22.4033 82.7397 21.8707 82.7397 21.304V19.57C82.7397 18.822 82.3997 18.448 81.7197 18.448C81.4024 18.448 81.1077 18.5953 80.8357 18.89C80.5637 19.1847 80.3597 19.5133 80.2237 19.876V30.212ZM88.461 13.246C87.4864 13.246 86.999 12.6 86.999 11.308C86.999 10.016 87.4864 9.37 88.461 9.37C89.4357 9.37 89.923 10.016 89.923 11.308C89.923 12.6 89.4357 13.246 88.461 13.246ZM86.353 16.34H89.753V30.178C89.753 30.654 89.8324 30.994 89.991 31.198C90.1724 31.402 90.501 31.504 90.977 31.504C90.9997 32.0933 90.841 32.5467 90.501 32.864C90.1837 33.1813 89.7077 33.34 89.073 33.34C88.4384 33.34 87.9624 33.1473 87.645 32.762C87.3504 32.3767 87.203 31.742 87.203 30.858V18.38L86.149 18.55C85.9904 17.9607 85.911 17.4507 85.911 17.02C85.911 16.5667 86.0584 16.34 86.353 16.34ZM96.964 21.508C97.78 21.508 98.392 21.4513 98.8 21.338C98.9813 21.9727 99.072 22.596 99.072 23.208C99.072 23.5707 98.9133 23.752 98.596 23.752H96.59C96.114 23.752 95.7286 23.8767 95.434 24.126C95.162 24.3753 95.026 24.704 95.026 25.112V29.736C95.026 30.1667 95.162 30.5067 95.434 30.756C95.7286 30.9827 96.114 31.096 96.59 31.096C97.066 31.096 97.4513 30.9827 97.746 30.756C98.0406 30.5067 98.188 30.1667 98.188 29.736V28.886L98.086 27.152C98.4033 27.084 98.7206 27.05 99.038 27.05C99.3553 27.05 99.6726 27.0953 99.99 27.186C100.579 27.3447 100.874 27.628 100.874 28.036V30.212C100.874 31.1413 100.489 31.9007 99.718 32.49C98.9473 33.0567 97.9046 33.34 96.59 33.34C95.298 33.34 94.2666 33.0227 93.496 32.388C92.7253 31.7533 92.34 30.8693 92.34 29.736V24.976C92.34 23.956 92.6686 23.174 93.326 22.63C92.6686 22.086 92.34 21.304 92.34 20.284V14.164C92.34 13.0307 92.7253 12.1467 93.496 11.512C94.2666 10.8773 95.2866 10.56 96.556 10.56C97.848 10.56 98.868 10.8547 99.616 11.444C100.364 12.0107 100.738 12.7587 100.738 13.688V16.544C100.738 16.952 100.443 17.2353 99.854 17.394C99.5366 17.4847 99.2193 17.53 98.902 17.53C98.5846 17.53 98.2673 17.496 97.95 17.428C98.018 16.884 98.052 16.306 98.052 15.694V14.164C98.052 13.2573 97.5533 12.804 96.556 12.804C96.08 12.804 95.706 12.9287 95.434 13.178C95.162 13.4047 95.026 13.7333 95.026 14.164V20.148C95.026 20.556 95.1506 20.8847 95.4 21.134C95.672 21.3833 96.0233 21.508 96.454 21.508H96.964ZM108.275 19.128C108.275 18.0173 108.195 17.088 108.037 16.34C108.717 16.2493 109.453 16.204 110.247 16.204C110.632 16.204 110.825 16.374 110.825 16.714V22.902C110.825 23.9447 110.485 24.772 109.805 25.384C110.485 25.9507 110.825 26.778 110.825 27.866V30.178C110.825 30.654 110.904 30.994 111.063 31.198C111.244 31.402 111.573 31.504 112.049 31.504C112.071 32.0707 111.901 32.524 111.539 32.864C111.199 33.1813 110.711 33.34 110.077 33.34C109.442 33.34 108.977 33.1587 108.683 32.796C108.411 32.4333 108.275 31.8327 108.275 30.994V27.832C108.275 27.424 108.139 27.0953 107.867 26.846C107.617 26.5967 107.3 26.472 106.915 26.472C106.552 26.472 106.246 26.5967 105.997 26.846C105.77 27.0953 105.657 27.424 105.657 27.832V30.212C105.657 31.0733 105.736 32.0027 105.895 33C105.215 33.0907 104.478 33.136 103.685 33.136C103.299 33.136 103.107 32.966 103.107 32.626V28.002C103.107 26.914 103.447 26.0867 104.127 25.52C103.447 24.908 103.107 24.0807 103.107 23.038V19.162C103.107 18.686 103.016 18.346 102.835 18.142C102.676 17.938 102.359 17.836 101.883 17.836C101.86 17.2693 102.019 16.8273 102.359 16.51C102.721 16.17 103.22 16 103.855 16C104.489 16 104.943 16.1813 105.215 16.544C105.509 16.9067 105.657 17.5073 105.657 18.346V23.072C105.657 23.48 105.781 23.8087 106.031 24.058C106.28 24.3073 106.586 24.432 106.949 24.432C107.334 24.4093 107.651 24.2733 107.901 24.024C108.15 23.7747 108.275 23.4573 108.275 23.072V19.128ZM116.349 30.824H117.675C118.06 30.824 118.366 30.7107 118.593 30.484C118.842 30.2347 118.967 29.9173 118.967 29.532V19.502C118.967 18.7087 118.638 18.312 117.981 18.312C117.641 18.312 117.312 18.448 116.995 18.72C116.7 18.9693 116.485 19.2413 116.349 19.536V30.824ZM116.349 33V35.72L116.587 37.964C115.975 38.2133 115.272 38.338 114.479 38.338C114.025 38.338 113.799 38.168 113.799 37.828V19.162C113.799 18.686 113.708 18.346 113.527 18.142C113.368 17.938 113.051 17.836 112.575 17.836C112.552 17.2467 112.699 16.7933 113.017 16.476C113.357 16.1587 113.889 16 114.615 16C115.363 16 115.884 16.3513 116.179 17.054C116.881 16.3513 117.675 16 118.559 16C119.443 16 120.157 16.306 120.701 16.918C121.245 17.5073 121.517 18.3573 121.517 19.468V29.396C121.517 30.5293 121.165 31.4133 120.463 32.048C119.76 32.6827 118.808 33 117.607 33H116.349ZM126.642 30.212C126.642 31.3 126.721 32.2067 126.88 32.932C126.2 33.068 125.463 33.136 124.67 33.136C124.284 33.136 124.092 32.966 124.092 32.626V19.162C124.092 18.686 124.001 18.346 123.82 18.142C123.661 17.938 123.344 17.836 122.868 17.836C122.845 17.2467 122.992 16.7933 123.31 16.476C123.65 16.1587 124.126 16 124.738 16C125.644 16 126.211 16.4533 126.438 17.36C127.004 16.4533 127.809 16 128.852 16C130.71 16 131.64 16.8953 131.64 18.686V22.086C131.64 22.4713 131.368 22.732 130.824 22.868C130.552 22.9587 130.257 23.004 129.94 23.004C129.645 23.004 129.35 22.97 129.056 22.902C129.124 22.4033 129.158 21.8707 129.158 21.304V19.57C129.158 18.822 128.818 18.448 128.138 18.448C127.82 18.448 127.526 18.5953 127.254 18.89C126.982 19.1847 126.778 19.5133 126.642 19.876V30.212ZM138.449 19.638C138.449 19.1847 138.313 18.8333 138.041 18.584C137.769 18.312 137.429 18.176 137.021 18.176C136.182 18.176 135.763 18.5273 135.763 19.23V24.092L137.395 22.868C138.098 22.3467 138.449 21.27 138.449 19.638ZM133.213 29.974V19.332C133.213 17.1107 134.516 16 137.123 16C139.752 16 141.067 17.2467 141.067 19.74C141.067 20.7373 140.886 21.6553 140.523 22.494C140.16 23.3327 139.662 23.9673 139.027 24.398L135.763 26.642V29.736C135.763 30.688 136.205 31.164 137.089 31.164C137.996 31.164 138.449 30.6313 138.449 29.566V28.784L138.347 27.186C138.642 27.118 138.936 27.084 139.231 27.084C139.548 27.084 139.843 27.1293 140.115 27.22C140.659 27.356 140.931 27.6167 140.931 28.002V30.45C140.931 31.3567 140.568 32.0707 139.843 32.592C139.14 33.0907 138.2 33.34 137.021 33.34C134.482 33.34 133.213 32.218 133.213 29.974ZM145.152 29.634C145.152 30.654 145.606 31.164 146.512 31.164C147.442 31.164 147.906 30.6087 147.906 29.498V28.104C147.906 27.2653 147.612 26.6647 147.022 26.302L144.03 24.5C143.146 23.956 142.704 23.038 142.704 21.746V19.366C142.704 18.3687 143.022 17.564 143.656 16.952C144.314 16.3173 145.266 16 146.512 16C147.782 16 148.745 16.2607 149.402 16.782C150.06 17.3033 150.388 18.0173 150.388 18.924V21.066C150.388 21.4513 150.116 21.712 149.572 21.848C149.3 21.9387 149.006 21.984 148.688 21.984C148.394 21.984 148.099 21.95 147.804 21.882C147.872 21.3833 147.906 20.8507 147.906 20.284V19.774C147.906 18.7087 147.476 18.176 146.614 18.176C145.708 18.176 145.254 18.652 145.254 19.604V21.168C145.254 21.9613 145.504 22.494 146.002 22.766L148.994 24.5C149.969 25.044 150.456 25.9733 150.456 27.288V29.838C150.456 30.926 150.128 31.7873 149.47 32.422C148.836 33.034 147.895 33.34 146.648 33.34C145.402 33.34 144.427 33.0907 143.724 32.592C143.022 32.0933 142.67 31.3793 142.67 30.45V28.206C142.67 27.8207 142.942 27.56 143.486 27.424C143.758 27.3333 144.042 27.288 144.336 27.288C144.654 27.288 144.96 27.322 145.254 27.39C145.186 27.8887 145.152 28.4213 145.152 28.988V29.634ZM154.648 29.634C154.648 30.654 155.102 31.164 156.008 31.164C156.938 31.164 157.402 30.6087 157.402 29.498V28.104C157.402 27.2653 157.108 26.6647 156.518 26.302L153.526 24.5C152.642 23.956 152.2 23.038 152.2 21.746V19.366C152.2 18.3687 152.518 17.564 153.152 16.952C153.81 16.3173 154.762 16 156.008 16C157.278 16 158.241 16.2607 158.898 16.782C159.556 17.3033 159.884 18.0173 159.884 18.924V21.066C159.884 21.4513 159.612 21.712 159.068 21.848C158.796 21.9387 158.502 21.984 158.184 21.984C157.89 21.984 157.595 21.95 157.3 21.882C157.368 21.3833 157.402 20.8507 157.402 20.284V19.774C157.402 18.7087 156.972 18.176 156.11 18.176C155.204 18.176 154.75 18.652 154.75 19.604V21.168C154.75 21.9613 155 22.494 155.498 22.766L158.49 24.5C159.465 25.044 159.952 25.9733 159.952 27.288V29.838C159.952 30.926 159.624 31.7873 158.966 32.422C158.332 33.034 157.391 33.34 156.144 33.34C154.898 33.34 153.923 33.0907 153.22 32.592C152.518 32.0933 152.166 31.3793 152.166 30.45V28.206C152.166 27.8207 152.438 27.56 152.982 27.424C153.254 27.3333 153.538 27.288 153.832 27.288C154.15 27.288 154.456 27.322 154.75 27.39C154.682 27.8887 154.648 28.4213 154.648 28.988V29.634Z" fill="black"/>
<ellipse cx="21.5" cy="22" rx="21.5" ry="22" fill="black"/>
<path d="M21.07 28.516C21.0553 28.5747 21.0333 28.626 21.004 28.67C20.9893 28.714 20.96 28.7653 20.916 28.824C20.9453 28.8093 20.9233 28.8313 20.85 28.89C20.7913 28.934 20.7693 28.9487 20.784 28.934C20.7693 28.934 20.7547 28.9413 20.74 28.956C20.7107 29.1027 20.6887 29.242 20.674 29.374C20.674 29.506 20.6667 29.6453 20.652 29.792C20.6373 30.0267 20.608 30.2833 20.564 30.562C20.5347 30.8553 20.5053 31.1193 20.476 31.354C20.4613 31.5007 20.432 31.6767 20.388 31.882C20.3587 32.102 20.3293 32.2853 20.3 32.432C20.2853 32.476 20.2707 32.52 20.256 32.564C20.256 32.608 20.2413 32.6447 20.212 32.674C20.212 32.6887 20.1973 32.696 20.168 32.696C20.1533 32.696 20.146 32.6887 20.146 32.674C20.1167 32.6447 20.0947 32.608 20.08 32.564C20.08 32.5347 20.0727 32.5053 20.058 32.476C20.014 32.344 19.9773 32.1753 19.948 31.97C19.9187 31.7793 19.8893 31.6253 19.86 31.508C19.8013 31.1707 19.7573 30.782 19.728 30.342C19.7133 29.9167 19.6693 29.5427 19.596 29.22C19.5813 29.2933 19.574 29.3667 19.574 29.44C19.574 29.528 19.5593 29.6087 19.53 29.682C19.5153 29.7113 19.486 29.726 19.442 29.726C19.4127 29.7407 19.3833 29.7627 19.354 29.792C19.3393 29.792 19.3173 29.7993 19.288 29.814C19.2733 29.8433 19.266 29.8507 19.266 29.836C19.2513 29.7627 19.2367 29.6893 19.222 29.616C19.222 29.5427 19.2147 29.4693 19.2 29.396C19.2 29.4107 19.1927 29.4253 19.178 29.44C19.1633 29.4693 19.1487 29.4987 19.134 29.528C19.1193 29.5573 19.1047 29.5867 19.09 29.616C19.09 29.616 19.0827 29.616 19.068 29.616C19.068 29.6307 19.068 29.6453 19.068 29.66C19.068 29.66 19.046 29.682 19.002 29.726C18.958 29.7847 18.9287 29.814 18.914 29.814C18.8847 29.8433 18.8553 29.858 18.826 29.858C18.8113 30.0927 18.7967 30.32 18.782 30.54C18.782 30.7747 18.7673 31.002 18.738 31.222C18.738 31.2367 18.7233 31.244 18.694 31.244C18.6647 31.244 18.6427 31.2367 18.628 31.222C18.6133 30.9727 18.606 30.7967 18.606 30.694C18.606 30.606 18.606 30.5327 18.606 30.474C18.606 30.43 18.5987 30.3567 18.584 30.254C18.5693 30.1513 18.5327 29.9753 18.474 29.726C18.4007 29.638 18.3273 29.5427 18.254 29.44C18.2393 29.4253 18.232 29.4107 18.232 29.396C18.232 29.3813 18.2247 29.3667 18.21 29.352L18.122 29.22C18.1073 29.1907 18.1 29.1613 18.1 29.132C18.1 29.1173 18.0927 29.1027 18.078 29.088C18.078 29.132 18.0633 29.154 18.034 29.154C18.034 29.154 18.0047 29.1393 17.946 29.11C17.9313 29.154 17.9093 29.198 17.88 29.242C17.8507 29.286 17.814 29.3227 17.77 29.352C17.7407 29.3813 17.7187 29.396 17.704 29.396C17.6747 29.4253 17.66 29.4767 17.66 29.55C17.66 29.6233 17.638 29.6527 17.594 29.638C17.55 29.6233 17.528 29.5793 17.528 29.506C17.5427 29.4473 17.5353 29.396 17.506 29.352L17.418 29.264L17.286 29.11C17.286 29.1247 17.2787 29.132 17.264 29.132C17.2787 29.132 17.2493 29.11 17.176 29.066C17.1173 29.0367 17.088 29.022 17.088 29.022C17.088 29.022 17.0513 29.0367 16.978 29.066C16.9193 29.11 16.8607 29.1467 16.802 29.176C16.7433 29.22 16.6847 29.22 16.626 29.176C16.5673 29.1467 16.5307 29.11 16.516 29.066C16.516 29.022 16.5013 28.9707 16.472 28.912C16.3987 28.8533 16.3253 28.7873 16.252 28.714C16.1933 28.6407 16.1347 28.56 16.076 28.472C16.0173 28.3693 15.9587 28.2813 15.9 28.208L15.79 28.032C15.7607 27.988 15.724 27.944 15.68 27.9C15.6507 27.8413 15.6213 27.79 15.592 27.746C15.5627 27.702 15.5333 27.658 15.504 27.614C15.4747 27.57 15.4453 27.5187 15.416 27.46L15.284 27.262C15.152 27.13 15.02 26.9687 14.888 26.778C14.7707 26.5873 14.646 26.382 14.514 26.162C14.3967 26.0007 14.272 25.8173 14.14 25.612C14.008 25.392 13.8833 25.172 13.766 24.952L12.886 23.632C12.7687 23.4853 12.666 23.3387 12.578 23.192C12.5633 23.1627 12.5487 23.1333 12.534 23.104C12.5193 23.0747 12.4973 23.0527 12.468 23.038C12.4387 22.9793 12.424 22.95 12.424 22.95C12.3947 22.906 12.38 22.884 12.38 22.884C12.38 22.8693 12.38 22.8987 12.38 22.972V27.966C12.38 28.054 12.38 28.1493 12.38 28.252C12.3947 28.34 12.3947 28.428 12.38 28.516C12.38 28.4867 12.3727 28.5013 12.358 28.56C12.3433 28.604 12.3433 28.6187 12.358 28.604C12.358 28.6187 12.3507 28.6333 12.336 28.648C12.336 28.6627 12.3287 28.67 12.314 28.67C12.314 28.67 12.314 28.6773 12.314 28.692C12.314 28.7067 12.3067 28.714 12.292 28.714C12.292 28.714 12.292 28.7213 12.292 28.736C12.2187 28.824 12.1453 28.89 12.072 28.934C12.0427 28.9633 12.0207 28.9927 12.006 29.022C11.9767 29.0513 11.962 29.0807 11.962 29.11L11.874 29.264C11.8593 29.308 11.8373 29.3447 11.808 29.374C11.7933 29.418 11.7713 29.462 11.742 29.506C11.61 29.7993 11.4633 30.0927 11.302 30.386L11.104 30.826C11.104 30.8407 11.0967 30.848 11.082 30.848C11.082 30.848 11.082 30.8553 11.082 30.87L10.994 31.002L10.928 31.068C10.928 31.068 10.9207 31.068 10.906 31.068C10.906 31.068 10.906 31.0753 10.906 31.09C10.8913 31.09 10.8693 31.1047 10.84 31.134C10.8253 31.4127 10.8107 31.6913 10.796 31.97C10.796 32.2487 10.7813 32.5347 10.752 32.828C10.7373 32.872 10.7153 32.85 10.686 32.762C10.6713 32.6887 10.664 32.63 10.664 32.586C10.6347 32.3367 10.62 32.08 10.62 31.816C10.62 31.5667 10.6053 31.3173 10.576 31.068C10.5467 31.0533 10.5173 31.0167 10.488 30.958C10.4733 30.958 10.4587 30.9507 10.444 30.936L10.29 30.672C10.2753 30.628 10.2533 30.584 10.224 30.54C10.2093 30.496 10.1947 30.4447 10.18 30.386C10.1653 30.342 10.1507 30.298 10.136 30.254C10.1213 30.21 10.0993 30.1587 10.07 30.1L9.872 29.506C9.85733 29.4767 9.84267 29.44 9.828 29.396C9.828 29.352 9.82067 29.3153 9.806 29.286C9.77667 29.4327 9.762 29.5793 9.762 29.726C9.762 29.8727 9.74733 30.0267 9.718 30.188C9.70333 30.2027 9.68867 30.188 9.674 30.144C9.65933 30.1147 9.64467 30.0927 9.63 30.078C9.60067 30.0487 9.57133 30.0047 9.542 29.946C9.48333 29.8433 9.42467 29.7407 9.366 29.638C9.322 29.5353 9.26333 29.4473 9.19 29.374C9.16067 29.3447 9.13867 29.33 9.124 29.33C9.10933 29.374 9.07267 29.4253 9.014 29.484C8.98467 29.5133 8.94067 29.5353 8.882 29.55C8.838 29.5793 8.794 29.6087 8.75 29.638C8.706 29.682 8.66933 29.726 8.64 29.77C8.61067 29.8287 8.56667 29.8727 8.508 29.902C8.44933 29.946 8.38333 29.9533 8.31 29.924C8.25133 29.8653 8.222 29.8507 8.222 29.88C8.20733 30.0413 8.222 30.298 8.266 30.65C8.31 31.002 8.34667 31.354 8.376 31.706C8.42 32.058 8.42733 32.322 8.398 32.498C8.38333 32.6887 8.29533 32.7033 8.134 32.542C7.92867 32.322 7.826 32.0287 7.826 31.662C7.84067 31.2953 7.88467 30.9287 7.958 30.562C8.046 30.1953 8.08267 29.902 8.068 29.682L7.98 29.55C7.96533 29.5207 7.94333 29.4767 7.914 29.418C7.89933 29.374 7.892 29.3667 7.892 29.396C7.86267 29.5427 7.85533 29.6893 7.87 29.836C7.89933 29.9827 7.87733 30.1147 7.804 30.232C7.76 30.2907 7.738 30.276 7.738 30.188C7.738 30.1147 7.74533 30.012 7.76 29.88C7.77467 29.7627 7.77467 29.6673 7.76 29.594L7.606 28.978C7.54733 28.9487 7.496 28.9193 7.452 28.89C7.29067 28.7727 7.21 28.6113 7.21 28.406V14.194C7.21 14.1353 7.22467 14.062 7.254 13.974C7.298 13.842 7.364 13.754 7.452 13.71C7.48133 13.6807 7.54 13.6513 7.628 13.622C7.672 13.6073 7.738 13.6 7.826 13.6H11.28C11.4707 13.6 11.6247 13.6293 11.742 13.688C11.8593 13.7467 11.9473 13.8127 12.006 13.886C12.1233 13.9887 12.2187 14.1133 12.292 14.26C12.38 14.4067 12.4607 14.546 12.534 14.678L12.6 14.788L12.688 14.92C12.8493 15.0813 12.996 15.2867 13.128 15.536C13.26 15.7853 13.392 16.0347 13.524 16.284L13.568 16.394L14.338 17.648C14.3527 17.648 14.36 17.6553 14.36 17.67C14.5653 17.978 14.7633 18.3007 14.954 18.638C15.1593 18.9607 15.3573 19.2833 15.548 19.606L15.812 20.046L15.834 20.068L15.9 20.024V14.788C15.9 14.6853 15.8927 14.5753 15.878 14.458C15.878 14.3407 15.8853 14.2307 15.9 14.128C15.9 14.0547 15.9147 13.996 15.944 13.952C15.9733 13.8933 15.9953 13.8567 16.01 13.842C16.0247 13.798 16.054 13.7687 16.098 13.754C16.098 13.754 16.1127 13.7393 16.142 13.71C16.2447 13.6367 16.3473 13.6 16.45 13.6C16.5087 13.5853 16.5673 13.578 16.626 13.578C16.6847 13.578 16.736 13.578 16.78 13.578C16.8533 13.5927 16.9193 13.6 16.978 13.6C17.0513 13.6 17.1173 13.6 17.176 13.6H20.212C20.2853 13.6 20.3587 13.6 20.432 13.6C20.52 13.5853 20.6007 13.5927 20.674 13.622C20.7767 13.666 20.8647 13.7247 20.938 13.798C20.982 13.8567 21.0113 13.9153 21.026 13.974C21.0553 14.062 21.07 14.1353 21.07 14.194C21.0847 14.2967 21.0847 14.4067 21.07 14.524C21.07 14.6413 21.07 14.744 21.07 14.832V27.658C21.0847 27.8047 21.092 27.9513 21.092 28.098C21.1067 28.2447 21.0993 28.384 21.07 28.516Z" fill="white"/>
<path d="M36.828 26.514C36.7987 26.558 36.762 26.602 36.718 26.646C36.6887 26.69 36.6593 26.7267 36.63 26.756C36.5713 26.8147 36.52 26.8733 36.476 26.932C36.432 26.9907 36.3807 27.0493 36.322 27.108C36.2633 27.1667 36.1973 27.2253 36.124 27.284C36.0653 27.3427 35.9993 27.4087 35.926 27.482C35.8967 27.5113 35.8673 27.5333 35.838 27.548C35.838 27.5627 35.8233 27.5773 35.794 27.592C35.7793 27.6067 35.7793 27.6067 35.794 27.592C35.7353 27.68 35.6987 27.7533 35.684 27.812C35.6693 27.8267 35.662 27.8413 35.662 27.856C35.618 27.9587 35.574 28.0613 35.53 28.164C35.5007 28.2667 35.464 28.3693 35.42 28.472C35.42 28.5013 35.4127 28.5233 35.398 28.538C35.3833 28.6113 35.354 28.692 35.31 28.78C35.2807 28.8533 35.2513 28.9267 35.222 29L35.156 29.132C35.112 29.22 35.0607 29.3007 35.002 29.374C34.958 29.462 34.8993 29.528 34.826 29.572C34.8113 29.7333 34.826 29.9387 34.87 30.188C34.9287 30.4373 34.9727 30.6793 35.002 30.914C35.046 31.1487 35.0533 31.3393 35.024 31.486C34.9947 31.6327 34.8993 31.6913 34.738 31.662C34.518 31.618 34.4153 31.464 34.43 31.2C34.4447 30.9507 34.4887 30.6573 34.562 30.32C34.65 29.9973 34.6793 29.726 34.65 29.506C34.65 29.506 34.6353 29.4913 34.606 29.462C34.5767 29.4327 34.562 29.418 34.562 29.418C34.562 29.4033 34.5547 29.396 34.54 29.396C34.54 29.396 34.54 29.3887 34.54 29.374L34.474 29.264C34.4447 29.1907 34.4153 29.1247 34.386 29.066C34.3567 29.0073 34.32 28.9487 34.276 28.89C34.2613 28.89 34.254 28.8827 34.254 28.868L34.122 28.934H34.1C34.0853 29.1393 34.0707 29.3373 34.056 29.528C34.056 29.7333 34.0487 29.9387 34.034 30.144C34.0193 30.276 34.012 30.4593 34.012 30.694C34.012 30.9433 34.012 31.1413 34.012 31.288C34.012 31.4493 33.99 31.464 33.946 31.332C33.902 31.1707 33.8727 31.0093 33.858 30.848C33.858 30.7013 33.858 30.5473 33.858 30.386C33.814 30.386 33.792 30.3787 33.792 30.364C33.7773 30.2613 33.7773 30.144 33.792 30.012C33.8213 29.8947 33.8433 29.77 33.858 29.638V29.528C33.858 29.5133 33.8507 29.5207 33.836 29.55C33.8213 29.5793 33.8067 29.594 33.792 29.594C33.7627 29.5647 33.7407 29.5353 33.726 29.506C33.726 29.4767 33.7187 29.4547 33.704 29.44C33.6893 29.4253 33.6747 29.3813 33.66 29.308C33.6453 29.2347 33.6233 29.1613 33.594 29.088C33.506 29.1467 33.4693 29.2493 33.484 29.396C33.4987 29.5573 33.528 29.726 33.572 29.902C33.616 30.0927 33.6307 30.254 33.616 30.386C33.616 30.4007 33.6013 30.408 33.572 30.408C33.5573 30.4227 33.5427 30.4447 33.528 30.474C33.5133 30.4887 33.4987 30.518 33.484 30.562C33.4693 30.606 33.4547 30.6133 33.44 30.584C33.4253 30.3787 33.418 30.1733 33.418 29.968C33.418 29.7627 33.4107 29.5647 33.396 29.374C33.352 29.5353 33.308 29.7113 33.264 29.902C33.2347 30.0927 33.1833 30.2687 33.11 30.43C33.0953 30.474 33.0733 30.518 33.044 30.562C33.0147 30.6207 32.978 30.6573 32.934 30.672C32.8607 30.716 32.7947 30.694 32.736 30.606C32.7067 30.5767 32.6773 30.54 32.648 30.496C32.6333 30.452 32.6187 30.4227 32.604 30.408C32.5013 30.276 32.384 30.144 32.252 30.012C32.1347 29.88 32.032 29.7407 31.944 29.594C31.944 29.5793 31.9367 29.5647 31.922 29.55C31.922 29.55 31.922 29.5427 31.922 29.528C31.9073 29.528 31.9 29.5207 31.9 29.506C31.8853 29.4767 31.8707 29.44 31.856 29.396C31.8413 29.3667 31.8267 29.3373 31.812 29.308C31.7827 29.3813 31.768 29.462 31.768 29.55C31.7827 29.6527 31.768 29.748 31.724 29.836C31.7093 29.8507 31.6947 29.8287 31.68 29.77C31.6653 29.726 31.6507 29.6893 31.636 29.66C31.6067 29.572 31.592 29.4987 31.592 29.44C31.5627 29.4987 31.526 29.5573 31.482 29.616C31.4527 29.6893 31.4087 29.7553 31.35 29.814C31.2473 29.9167 31.1813 30.056 31.152 30.232C31.1227 30.4227 31.1153 30.6207 31.13 30.826C31.1007 30.826 31.064 30.848 31.02 30.892C30.9907 30.936 30.9613 30.98 30.932 31.024C30.9027 31.068 30.8807 31.1267 30.866 31.2C30.866 30.9067 30.866 30.6353 30.866 30.386C30.8807 30.1367 30.8807 29.946 30.866 29.814C30.7927 29.7553 30.7193 29.682 30.646 29.594C30.5873 29.5207 30.536 29.462 30.492 29.418C30.4773 29.3887 30.448 29.352 30.404 29.308C30.3893 29.308 30.3673 29.2933 30.338 29.264C30.2793 29.2347 30.2427 29.2567 30.228 29.33C30.2133 29.462 30.206 29.594 30.206 29.726C30.206 29.8727 30.1913 30.012 30.162 30.144C30.1473 30.1733 30.1327 30.1513 30.118 30.078C30.118 30.0047 30.1107 29.9533 30.096 29.924L30.03 29.22H30.008C28.5413 29.1907 27.2727 28.9487 26.202 28.494C25.1313 28.0247 24.31 27.3353 23.738 26.426C23.65 26.3087 23.5693 26.184 23.496 26.052C23.4373 25.9053 23.3787 25.7587 23.32 25.612C23.276 25.524 23.2393 25.436 23.21 25.348C23.1807 25.26 23.1513 25.172 23.122 25.084C23.0633 24.996 23.012 24.842 22.968 24.622C22.8947 24.3873 22.8433 24.094 22.814 23.742C22.7847 23.39 22.77 23.038 22.77 22.686C22.77 22.3193 22.77 22.026 22.77 21.806C22.77 21.674 22.77 21.542 22.77 21.41C22.77 21.278 22.7773 21.146 22.792 21.014V20.134C22.792 19.8407 22.792 19.54 22.792 19.232C22.8067 18.9093 22.8433 18.6087 22.902 18.33C23.034 17.5233 23.298 16.812 23.694 16.196L23.826 15.976C23.8407 15.9613 23.848 15.9467 23.848 15.932C23.8627 15.9173 23.8773 15.9027 23.892 15.888C23.9213 15.844 23.9507 15.8 23.98 15.756C24.024 15.712 24.0607 15.6753 24.09 15.646C24.7207 14.9127 25.542 14.3553 26.554 13.974C27.5807 13.5927 28.7467 13.3947 30.052 13.38H30.338C30.47 13.38 30.6093 13.38 30.756 13.38C30.9027 13.38 31.0273 13.3873 31.13 13.402C31.174 13.402 31.218 13.4093 31.262 13.424C31.306 13.424 31.35 13.424 31.394 13.424L31.834 13.468C31.9073 13.4827 31.9807 13.4973 32.054 13.512C32.1273 13.512 32.1933 13.5193 32.252 13.534C32.5893 13.578 32.9193 13.644 33.242 13.732C33.2567 13.732 33.264 13.7393 33.264 13.754C34.0707 13.9593 34.7673 14.2453 35.354 14.612C35.9553 14.964 36.454 15.3747 36.85 15.844C36.9233 15.932 36.9967 16.0273 37.07 16.13C37.1433 16.218 37.2093 16.3207 37.268 16.438C37.268 16.4527 37.2827 16.4747 37.312 16.504C37.3413 16.5627 37.3707 16.6287 37.4 16.702C37.444 16.7753 37.4807 16.8487 37.51 16.922C37.642 17.23 37.73 17.5527 37.774 17.89V18C37.7887 18.044 37.796 18.088 37.796 18.132C37.796 18.176 37.796 18.22 37.796 18.264V18.396C37.796 18.4253 37.7813 18.4547 37.752 18.484C37.752 18.484 37.7447 18.4913 37.73 18.506C37.73 18.506 37.73 18.5133 37.73 18.528C37.73 18.528 37.7153 18.5427 37.686 18.572C37.7153 18.572 37.7227 18.5793 37.708 18.594C37.6933 18.594 37.664 18.616 37.62 18.66C37.6053 18.6747 37.5907 18.6967 37.576 18.726C37.5613 18.7407 37.5467 18.7627 37.532 18.792C37.5173 18.8067 37.51 18.8213 37.51 18.836C37.51 18.8507 37.5027 18.8653 37.488 18.88C37.4733 18.8947 37.4587 18.924 37.444 18.968C37.444 19.012 37.4293 19.0267 37.4 19.012C37.3707 19.012 37.356 18.9973 37.356 18.968C37.356 18.924 37.3487 18.8873 37.334 18.858C37.3193 18.858 37.312 18.858 37.312 18.858C37.312 18.8433 37.312 18.836 37.312 18.836C37.2973 18.8213 37.2753 18.8213 37.246 18.836C37.2313 18.8507 37.2093 18.8653 37.18 18.88C37.1507 18.9093 37.136 18.924 37.136 18.924C37.1213 18.9387 37.092 18.946 37.048 18.946C37.0187 18.946 36.9893 18.9533 36.96 18.968C36.8573 18.9973 36.7473 19.034 36.63 19.078C36.5273 19.122 36.4173 19.1367 36.3 19.122C36.1973 19.122 36.102 19.1073 36.014 19.078C35.9407 19.034 35.8527 19.0047 35.75 18.99C35.6767 18.9607 35.596 18.9533 35.508 18.968C35.4347 18.9827 35.354 18.99 35.266 18.99C35.2367 18.99 35.2073 18.99 35.178 18.99C35.1487 18.9753 35.1193 18.968 35.09 18.968C35.0167 18.9827 34.9433 19.0267 34.87 19.1C34.8113 19.1587 34.7527 19.21 34.694 19.254C34.6353 19.298 34.5693 19.3273 34.496 19.342C34.4227 19.3567 34.3493 19.3787 34.276 19.408C34.2027 19.452 34.1367 19.5107 34.078 19.584C34.0193 19.6427 33.9533 19.6867 33.88 19.716H37.202C37.3193 19.716 37.4367 19.7527 37.554 19.826L37.686 19.958C37.7593 20.0607 37.796 20.178 37.796 20.31C37.796 20.4273 37.796 20.5447 37.796 20.662V21.96C37.796 22.224 37.796 22.488 37.796 22.752C37.8107 23.016 37.8107 23.28 37.796 23.544C37.7813 23.9107 37.7373 24.2553 37.664 24.578C37.5907 24.886 37.4953 25.1867 37.378 25.48L37.18 25.92C37.1213 26.0227 37.0627 26.1253 37.004 26.228C36.96 26.3307 36.9013 26.426 36.828 26.514ZM30.25 24.93H30.316C30.6093 24.93 30.9027 24.886 31.196 24.798C31.504 24.6953 31.746 24.5267 31.922 24.292C31.9953 24.1747 32.0467 24.0647 32.076 23.962C32.12 23.8447 32.1493 23.7347 32.164 23.632C32.164 23.6173 32.164 23.5953 32.164 23.566C32.1787 23.5367 32.186 23.5073 32.186 23.478L32.12 23.346C32.076 23.3607 32.0393 23.3973 32.01 23.456C31.9807 23.5147 31.9513 23.5587 31.922 23.588C31.878 23.6467 31.8267 23.698 31.768 23.742C31.724 23.786 31.6727 23.83 31.614 23.874C31.5847 23.8887 31.5553 23.9033 31.526 23.918C31.4967 23.918 31.4673 23.918 31.438 23.918C31.3353 23.9473 31.24 23.918 31.152 23.83L31.042 23.72C30.9833 23.6467 30.9393 23.566 30.91 23.478C30.8807 23.39 30.844 23.3093 30.8 23.236V23.214C30.7267 23.17 30.6607 23.0967 30.602 22.994C30.602 22.9793 30.5947 22.972 30.58 22.972C30.58 22.9573 30.58 22.9427 30.58 22.928C30.58 22.9133 30.5727 22.8987 30.558 22.884C30.558 22.8693 30.558 22.8547 30.558 22.84V22.818C30.5433 22.7153 30.536 22.6127 30.536 22.51C30.5507 22.4073 30.558 22.312 30.558 22.224V21.102C30.558 20.97 30.5507 20.8307 30.536 20.684C30.5213 20.5227 30.5287 20.376 30.558 20.244C30.5873 20.112 30.624 20.0167 30.668 19.958C30.6973 19.9287 30.712 19.914 30.712 19.914C30.8293 19.782 30.976 19.716 31.152 19.716H33.506C33.4327 19.6867 33.3593 19.65 33.286 19.606C33.2127 19.562 33.1467 19.5253 33.088 19.496C32.8973 19.3787 32.7067 19.276 32.516 19.188C32.3253 19.0853 32.1567 18.946 32.01 18.77L31.878 18.616C31.8633 18.6013 31.8487 18.5867 31.834 18.572C31.834 18.5573 31.8267 18.5427 31.812 18.528L31.746 18.462C31.702 18.4033 31.658 18.3447 31.614 18.286C31.57 18.2273 31.5187 18.1687 31.46 18.11L31.328 18L31.174 18.154C31.1593 18.1393 31.152 18.1173 31.152 18.088C31.108 18.1027 31.064 18.1173 31.02 18.132C30.9907 18.132 30.9613 18.1173 30.932 18.088C30.9467 18.1907 30.954 18.3007 30.954 18.418C30.9687 18.5353 30.932 18.594 30.844 18.594C30.7413 18.594 30.7047 18.506 30.734 18.33C30.778 18.154 30.7853 18.0147 30.756 17.912C30.756 17.8973 30.7413 17.89 30.712 17.89C30.6973 17.8753 30.6827 17.8827 30.668 17.912C30.6533 18.0147 30.646 18.132 30.646 18.264C30.646 18.3813 30.624 18.4987 30.58 18.616C30.5653 18.6307 30.5507 18.616 30.536 18.572C30.5213 18.528 30.5067 18.4913 30.492 18.462L30.404 18.242C30.3893 18.198 30.3747 18.154 30.36 18.11C30.3453 18.0513 30.3307 17.9927 30.316 17.934C30.272 17.978 30.228 18.0147 30.184 18.044C30.1547 18.0733 30.1033 18.0953 30.03 18.11C30.0153 18.1247 29.9787 18.1393 29.92 18.154C29.8613 18.154 29.8173 18.1467 29.788 18.132C29.788 18.132 29.7807 18.132 29.766 18.132C29.766 18.132 29.766 18.1247 29.766 18.11C29.7367 18.0807 29.722 18.0513 29.722 18.022C29.722 17.9927 29.7147 17.9707 29.7 17.956C29.7 17.9267 29.7 17.9047 29.7 17.89C29.6413 17.89 29.59 17.8973 29.546 17.912C29.4873 18.0147 29.4653 18.0807 29.48 18.11C29.5093 18.1247 29.48 18.1833 29.392 18.286C29.304 18.3887 29.2307 18.3813 29.172 18.264C29.128 18.1467 29.0767 18.0807 29.018 18.066C29.018 18.066 28.996 18.088 28.952 18.132L28.93 18.154L28.82 18.286C28.8053 18.3007 28.798 18.3153 28.798 18.33C28.798 18.3447 28.7907 18.3593 28.776 18.374C28.6733 18.5647 28.6073 18.77 28.578 18.99C28.5487 19.1953 28.534 19.4007 28.534 19.606C28.534 19.6793 28.5267 19.7747 28.512 19.892C28.512 19.9947 28.512 20.1047 28.512 20.222V22.07C28.512 22.2167 28.512 22.356 28.512 22.488C28.512 22.6053 28.5193 22.708 28.534 22.796C28.534 22.8987 28.534 23.0013 28.534 23.104C28.534 23.192 28.5413 23.2873 28.556 23.39C28.5853 23.5367 28.622 23.6907 28.666 23.852C28.71 23.9987 28.776 24.138 28.864 24.27C28.9813 24.4607 29.1353 24.6073 29.326 24.71C29.5167 24.8127 29.7147 24.8787 29.92 24.908C29.9787 24.908 30.03 24.9153 30.074 24.93C30.1327 24.93 30.1913 24.93 30.25 24.93ZM31.13 30.826C31.1887 30.8407 31.2253 30.9287 31.24 31.09C31.2547 31.2513 31.2547 31.4347 31.24 31.64C31.2253 31.4933 31.2033 31.354 31.174 31.222C31.1593 31.09 31.1447 30.958 31.13 30.826ZM30.932 33.444C30.9613 33.5907 30.9613 33.598 30.932 33.466C30.9027 33.3487 30.866 33.1507 30.822 32.872C30.7927 32.608 30.7707 32.3147 30.756 31.992C30.756 31.684 30.7927 31.42 30.866 31.2C30.8513 31.64 30.844 32.0727 30.844 32.498C30.844 32.9233 30.8733 33.2387 30.932 33.444ZM31.108 33.268C31.0787 33.4 31.0713 33.3853 31.086 33.224C31.1153 33.0627 31.1447 32.828 31.174 32.52C31.218 32.212 31.24 31.9187 31.24 31.64C31.2987 31.9627 31.328 32.2707 31.328 32.564C31.3427 32.872 31.2693 33.1067 31.108 33.268Z" fill="white"/>
</svg>
